<svg class="ldi-ysxisd" width="200px"  height="200px"  xmlns="http://www.w3.org/2000/svg" xmlns:xlink="http://www.w3.org/1999/xlink" viewBox="0 0 100 100" preserveAspectRatio="xMidYMid" style="background: none;"><!--?xml version="1.0" encoding="utf-8"?--><!--Generator: Adobe Illustrator 21.0.0, SVG Export Plug-In . SVG Version: 6.00 Build 0)--><svg version="1.1" id="圖層_1" xmlns="http://www.w3.org/2000/svg" xmlns:xlink="http://www.w3.org/1999/xlink" x="0px" y="0px" viewBox="0 0 100 100" style="transform-origin: 50px 50px 0px;" xml:space="preserve"><g style="transform-origin: 50px 50px 0px;"><g style="transform-origin: 50px 50px 0px; transform: scale(0.92);"><g style="transform-origin: 50px 50px 0px;"><g><style type="text/css" class="ld ld-breath" style="transform-origin: 50px 50px 0px; animation-duration: 1s; animation-delay: -1s; animation-direction: normal;">.st0{fill:#662D91;} .st1{fill:#A0C8D7;} .st2{fill:#ABBD81;} .st3{fill:#F47E60;} .st4{fill:#FFDC6C;} .st5{fill:#E15B64;} .st6{fill:#F2F2F2;} .st7{fill:#FCEE21;} .st8{fill:#EEF4DC;} .st9{fill:#F5E6C8;} .st10{fill:#C33737;} .st11{fill:#333333;} .st12{fill:#666666;} .st13{fill:#CCCCCC;} .st14{fill:#FFC28A;} .st15{fill:#4D4D4D;} .st16{fill:#999999;} .st17{fill:#29ABE2;} .st18{fill:#166496;} .st19{fill:#0071BC;} .st20{fill:#F7931E;} .st21{fill:#3E4D8A;} .st22{fill:#ED1E79;} .st23{fill:#9E005D;} .st24{fill:#D4145A;} .st25{fill:none;} .st26{fill:#ED1C24;} .st27{fill:#F15A24;} .st28{fill:#FBB03B;} .st29{fill:#C7B299;} .st30{fill:none;stroke:#FFFFFF;stroke-width:4;stroke-linecap:round;stroke-miterlimit:10;} .st31{fill:#C69C6D;} .st32{fill:#808080;} .st33{fill:#39B54A;} .st34{fill:#FFFFFF;} .st35{fill:#F6FF3F;} .st36{fill:#FF0000;} .st37{fill:#603813;} .st38{fill:#42210B;} .st39{fill:#1A1A1A;} .st40{fill:#FFD6B0;} .st41{fill:#C28851;} .st42{fill:#FFC28A;stroke:#FFFFFF;stroke-width:2;stroke-miterlimit:10;} .st43{fill:#009245;} .st44{fill:none;stroke:#333333;stroke-linecap:round;stroke-miterlimit:10;} .st45{fill:#E0E0E0;} .st46{fill:#C59B6D;} .st47{fill:#3399CC;} .st48{fill:#9F69B8;} .st49{fill:#EFBF4E;} .st50{fill:#353035;} .st51{fill:#77A4BD;} .st52{fill:#131F25;} .st53{fill:#494B32;} .st54{fill:none;stroke:#754C24;stroke-miterlimit:10;} .st55{fill:#754C24;} .st56{fill:#B2A44F;} .st57{fill:#48462D;} .st58{opacity:0.6;fill:#F73D7E;} .st59{opacity:0.8;fill:#F73D7E;} .st60{fill:#F73D7E;} .st61{opacity:0.59;fill:#3399CC;} .st62{fill:#DBDBDB;} .st63{fill:#3FAB4B;} .st64{fill:#E3A735;} .st65{fill:#E48E11;} .st66{fill:#A67C52;} .st67{fill:#8C6239;} .st68{fill:#666666;stroke:#F2F2F2;stroke-width:1.5;stroke-miterlimit:10;} .st69{fill:none;stroke:#333333;stroke-width:1.5;stroke-miterlimit:10;} .st70{fill:#62A562;} .st71{opacity:0.76;fill:#2E6045;} .st72{fill:#2E6045;} .st73{opacity:0.8;fill:#2E6045;} .st74{fill:#F8B26A;stroke:#231815;stroke-miterlimit:10;} .st75{fill:#F1F5DB;} .st76{fill:#FEAE01;} .st77{fill:#FF9400;} .st78{fill:none;stroke:#B3B3B3;stroke-width:3;stroke-miterlimit:10;} .st79{fill:#B3B3B3;} .st80{fill:none;stroke:#000000;stroke-width:1.5;stroke-miterlimit:10;} .st81{fill:none;stroke:#754C24;stroke-width:3;stroke-miterlimit:10;} .st82{fill:#C5C2BA;} .st83{fill:#E62B0F;} .st84{fill:#F2E336;} .st85{fill:#96AB5F;} .st86{fill:#C0996D;} .st87{fill:#573E31;} .st88{fill:none;stroke:#754C24;stroke-width:2;stroke-linecap:round;stroke-miterlimit:10;} .st89{fill:#534741;} .st90{fill:#F8B26A;} .st91{fill:#F8B26A;stroke:#F2F2F2;stroke-width:0.4104;stroke-miterlimit:10;} .st92{fill:none;stroke:#FFFFFF;stroke-width:1.8418;stroke-miterlimit:10;} .st93{fill:#F73D7E;stroke:#FFFFFF;stroke-width:1.5;stroke-miterlimit:10;} .st94{fill:#F8B26A;stroke:#FFFFFF;stroke-width:2.2377;stroke-miterlimit:10;} .st95{fill:#C33737;stroke:#FFFFFF;stroke-width:1.1035;stroke-miterlimit:10;} .st96{fill:none;stroke:#333333;stroke-width:3.876;stroke-miterlimit:10;} .st97{fill:#31F294;} .st98{fill:#66503A;} .st99{fill:#E15C65;}</style><g class="ld ld-breath" style="transform-origin: 50px 50px 0px; animation-duration: 1s; animation-delay: -0.944444s; animation-direction: normal;"><path class="st75" d="M27.5,66.661v14.467c0,2.984,2.52,5.403,5.628,5.403h0.664V51.704C29.899,55.582,27.5,60.848,27.5,66.661z" fill="476074" style="fill: rgb(71, 96, 116);"></path></g><g class="ld ld-breath" style="transform-origin: 50px 50px 0px; animation-duration: 1s; animation-delay: -0.888889s; animation-direction: normal;"><path class="st75" d="M66.208,51.704v34.828h0.664c3.108,0,5.628-2.419,5.628-5.403V66.661C72.5,60.848,70.101,55.582,66.208,51.704 z" fill="476074" style="fill: rgb(71, 96, 116);"></path></g><g class="ld ld-breath" style="transform-origin: 50px 50px 0px; animation-duration: 1s; animation-delay: -0.833333s; animation-direction: normal;"><path class="st75" d="M43.674,65.795h12.652c2.029,0,3.674-1.645,3.674-3.674v-14.79c-3.015-1.442-6.403-2.273-10-2.273 c-3.597,0-6.985,0.831-10,2.273v14.79C40,64.15,41.645,65.795,43.674,65.795z" fill="476074" style="fill: rgb(71, 96, 116);"></path></g><g class="ld ld-breath" style="transform-origin: 50px 50px 0px; animation-duration: 1s; animation-delay: -0.777778s; animation-direction: normal;"><circle class="st29" cx="50" cy="35.545" r="14.513" fill="rgb(199, 178, 153)" style="fill: rgb(199, 178, 153);"></circle></g><g class="ld ld-breath" style="transform-origin: 50px 50px 0px; animation-duration: 1s; animation-delay: -0.722222s; animation-direction: normal;"><path class="st76" d="M64.097,26.781c-9.398,2.667-18.796,2.667-28.194,0l-2.077,1.259C33.307,28.355,33,28.86,33,29.397v1.333 c0,0.635,0.427,1.215,1.103,1.498l1.327,0.555l4.488,1.313c0.701,0.205,1.437,0.31,2.179,0.31H50h7.903 c0.742,0,1.478-0.105,2.179-0.31l4.488-1.313l1.327-0.555C66.573,31.946,67,31.365,67,30.731v-1.333 c0-0.538-0.307-1.043-0.826-1.357L64.097,26.781z" fill="rgb(254, 174, 1)" style="fill: rgb(254, 174, 1);"></path></g><g class="ld ld-breath" style="transform-origin: 50px 50px 0px; animation-duration: 1s; animation-delay: -0.666667s; animation-direction: normal;"><path class="st76" d="M60,47.351l0,13.769c0,2.029-1.645,3.674-3.674,3.674H43.674c-2.029,0-3.674-1.645-3.674-3.674l0-13.769 c0-0.451-0.491-0.73-0.875-0.493c-1.161,0.718-3.222,2.043-4.602,3.188c-0.472,0.391-0.732,0.981-0.732,1.594l0,34.891h32.417 l0-34.891c0-0.613-0.26-1.203-0.732-1.594c-1.38-1.145-3.441-2.47-4.602-3.188C60.491,46.621,60,46.9,60,47.351z" fill="rgb(254, 174, 1)" style="fill: rgb(254, 174, 1);"></path></g><g class="ld ld-breath" style="transform-origin: 50px 50px 0px; animation-duration: 1s; animation-delay: -0.611111s; animation-direction: normal;"><path class="st76" d="M63.54,28.969c0.531-0.103,0.918-0.599,0.855-1.136C63.546,20.626,57.435,15.031,50,15.031 c-7.411,0-13.508,5.559-14.386,12.733c-0.069,0.564,0.291,1.097,0.849,1.205C45.488,30.719,54.514,30.719,63.54,28.969z" fill="rgb(254, 174, 1)" style="fill: rgb(254, 174, 1);"></path></g><g class="ld ld-breath" style="transform-origin: 50px 50px 0px; animation-duration: 1s; animation-delay: -0.555556s; animation-direction: normal;"><path class="st77" d="M45.906,26.781c2.729,1.917,5.458,1.917,8.188,0l0.93-11.627c0.042-0.621-0.382-1.174-0.993-1.294 c-1.295-0.255-2.941-0.391-4.031-0.391s-2.736,0.136-4.031,0.391c-0.611,0.12-1.035,0.673-0.993,1.294L45.906,26.781z" fill="rgb(255, 148, 0)" style="fill: rgb(255, 148, 0);"></path></g><metadata xmlns:d="https://loading.io/stock/" class="ld ld-breath" style="transform-origin: 50px 50px 0px; animation-duration: 1s; animation-delay: -0.5s; animation-direction: normal;">
<d:name class="ld ld-breath" style="transform-origin: 50px 50px 0px; animation-duration: 1s; animation-delay: -0.444444s; animation-direction: normal;">woker</d:name>
<d:tags class="ld ld-breath" style="transform-origin: 50px 50px 0px; animation-duration: 1s; animation-delay: -0.388889s; animation-direction: normal;">engineer,builder,architect,woker,people</d:tags>
<d:license class="ld ld-breath" style="transform-origin: 50px 50px 0px; animation-duration: 1s; animation-delay: -0.333333s; animation-direction: normal;">rf</d:license>
<d:slug class="ld ld-breath" style="transform-origin: 50px 50px 0px; animation-duration: 1s; animation-delay: -0.277778s; animation-direction: normal;">ysxisd</d:slug>
</metadata></g></g></g></g><style type="text/css" class="ld ld-breath" style="transform-origin: 50px 50px 0px; animation-duration: 1s; animation-delay: -0.222222s; animation-direction: normal;">@keyframes ld-breath {
  0% {
    -webkit-transform: scale(0.86);
    transform: scale(0.86);
  }
  50% {
    -webkit-transform: scale(1.06);
    transform: scale(1.06);
  }
  100% {
    -webkit-transform: scale(0.86);
    transform: scale(0.86);
  }
}
@-webkit-keyframes ld-breath {
  0% {
    -webkit-transform: scale(0.86);
    transform: scale(0.86);
  }
  50% {
    -webkit-transform: scale(1.06);
    transform: scale(1.06);
  }
  100% {
    -webkit-transform: scale(0.86);
    transform: scale(0.86);
  }
}
.ld.ld-breath {
  -webkit-animation: ld-breath 1s infinite;
  animation: ld-breath 1s infinite;
}
</style></svg></svg>